<svg xmlns="http://www.w3.org/2000/svg" width="48" height="300" viewBox="0 0 48 300"><g fill="none" fill-rule="evenodd"><path fill="#FFF" d="M20 4.43C20 1.98 22 0 24.43 0h-.84C26 0 28 1.98 28 4.43l.87 291.14c0 2.45-1.97 4.43-4.4 4.43h.83c-2.44 0-4.43-1.98-4.43-4.43L20 4.43z"/><g transform="translate(-51 111)"><g fill="#01345F" style="mix-blend-mode:multiply"><path d="M79.8 58.5c.17-2.57.23-3.7 2.02-5.97 1.78-2.26 5.2-3.64 5.2-3.64l-13.7-.2 4.6 17.7s1.73-5.37 1.9-7.9z"/><path d="M70.17 58.5c-.16-2.57-.22-3.7-2-5.97-1.8-2.27-5.2-3.65-5.2-3.65l13.68-.18-4.6 17.7s-1.72-5.35-1.88-7.9z"/></g><rect width="9.75" height="29.91" x="70.06" y="46.05" fill="#01345F" rx="3"/><path fill="#01345F" d="M51.67 28.18C51.67 41 62.1 51.4 74.93 51.4 87.78 51.4 98.2 41 98.2 28.2c0-7.3-46.53-7.38-46.53 0z"/><path fill="#009FF7" d="M86.94 49s.9-.55 1.32-.9c5.47-4.33 10.1-11.13 10.1-18.65 0-13.07-7.1-27.62-23.43-27.22-16.3.4-23.4 14.15-23.4 27.22 0 7.44 5.23 14.46 10.6 18.8.3.24.93.67.93.67l11.77.03 12.1.04z"/></g></g></svg>