<svg xmlns="http://www.w3.org/2000/svg" width="62" height="103" viewBox="0 0 62 103"><g fill="none" fill-rule="evenodd" transform="translate(-2.388 .163)"><path fill="#01345F" d="M26.67 76.68c-.22-3.57-.3-5.14-2.8-8.3-2.48-3.16-6.76-5.88-6.76-5.88H37l-6.42 25.25s-3.64-7.5-3.86-11.07z"/><path fill="#01345F" d="M40.1 76.68c.22-3.57.32-5.14 2.8-8.3 2.5-3.16 6.76-5.88 6.76-5.88H29.83l6.4 25.25s3.66-7.5 3.88-11.07z"/><rect width="13.58" height="41.67" x="26.6" y="61.15" fill="#01345F" rx="3"/><path fill="#009FF7" d="M47.62 63.87s1.25-.75 1.84-1.22c3.53-2.8 7.36-5 9.92-9.04 2.98-4.62 4.15-10 4.15-15.6 0-18.2-7.77-38-30.13-37.9C11 .26 3.26 19.8 3.26 38.05c0 5.54 1.25 11 4.27 15.78 2.63 4.2 6.47 6.3 9.95 9.1.4.36 1.6.97 1.6.97l28.52.03z"/></g></svg>